<?xml version="1.0" standalone="no"?>
<!DOCTYPE svg PUBLIC "-//W3C//DTD SVG 1.1//EN" "http://www.w3.org/Graphics/SVG/1.1/DTD/svg11.dtd">
<svg xmlns="http://www.w3.org/2000/svg">
<defs >
<font id="IBMPlexMono" horiz-adv-x="600" ><font-face
    font-family="IBM Plex Mono"
    units-per-em="1000"
    panose-1="2 11 5 9 5 2 3 0 2 3"
    ascent="1025"
    descent="-275"
    alphabetic="0" />
<glyph unicode=" " glyph-name="space" />
<glyph unicode="!" glyph-name="exclam" d="M280 233L297 495L331 698H417L383 495L311 233H280ZM257 -9Q222 -9 207 3T192 35Q192 40 193 47T196 68Q201 95 219 111T277 127Q312 127 327 115T342 83Q342 78 341 71T338 50Q333 23 315 7T257 -9Z" />
<glyph unicode="&quot;" glyph-name="quotedbl" d="M467 464L513 740H587L541 464H467ZM385 464L431 740H505L459 464H385Z" />
<glyph unicode="#" glyph-name="numbersign" d="M142 217H12L23 281H164L210 417H81L92 481H232L306 698H379L141 0H68L142 217ZM490 698H563L489 481H619L608 417H467L421 281H550L539 217H399L325 0H252L490 698Z" />
<glyph unicode="$" glyph-name="dollar" d="M223 -9Q151 -1 101 32T23 113L85 162Q114 118 149 93T235 61L279 327L263 331Q102 367 102 502Q102 549 119 587T168 652T244 693T343 710L360 811H420L402 707Q471 698 516 667T585 594L525 550Q476 625 390 637L348
388L374 382Q459 362 496 319T534 212Q534 164 517 124T467 55T388 8T283 -12L266 -113H206L223 -9ZM186 508Q186 462 213 439T292 401L331 639Q263 634 225 600T186 508ZM450 205Q450 248 424 274T336 314L294 60Q366 66 408 104T450 205Z" />
<glyph unicode="%" glyph-name="percent" d="M192 357Q133 357 98 392T63 500Q63 547 76 585T114 652T170 695T238 710Q297 710 332 675T367 567Q367 520 354 482T316 415T260 372T192 357ZM194 410Q236 410 259 436T291 508Q298 548 300 562T302 584Q302 657
236 657Q194 657 171 631T139 559Q136 539 134 526T130 505T129 492T128 483Q128 410 194 410ZM584 698H656L447 398H375L584 698ZM185 300H257L48 0H-24L185 300ZM394 -12Q335 -12 300 23T265 131Q265 178 278 216T316 283T372 326T440 341Q499 341 534 306T569
198Q569 151 556 113T518 46T462 3T394 -12ZM396 41Q438 41 461 67T493 139Q500 179 502 193T504 215Q504 288 438 288Q396 288 373 262T341 190Q338 170 336 157T332 136T331 123T330 114Q330 41 396 41Z" />
<glyph unicode="&amp;" glyph-name="ampersand" d="M164 -12Q125 -12 95 1T43 39T12 97T1 171Q1 205 9 241T39 309T96 361T190 388Q167 434 157 465T147 531Q147 572 161 605T199 661T258 697T333 710Q405 710 451 669T498 542Q498 447 444 395T301 327L438 59H455L533
188L588 160L538 67Q515 24 494 6T443 -12Q400 -12 373 24T322 135H317Q311 91 295 63T258 18T213 -5T164 -12ZM176 56Q232 56 260 88T298 166L209 349Q174 344 152 332T118 304T99 270T89 233Q86 217 85 202T84 175Q84 110 107 83T176 56ZM327 645Q282 645 254
619T225 533Q225 500 236 467T272 385L283 364Q380 388 408 466Q415 486 417 505T419 539Q419 598 393 621T327 645Z" />
<glyph unicode="&apos;" glyph-name="quotesingle" d="M297 464L343 740H417L371 464H297Z" />
<glyph unicode="(" glyph-name="parenleft" d="M206 216Q206 303 230 385T295 538T386 666T493 760H578Q528 726 482 682T397 586T332 476T295 354L281 269Q275 233 275 195Q275 142 287 94T319 4T368 -74T429 -138H352Q321 -112 295 -75T249 7T218 105T206 216Z" />
<glyph unicode=")" glyph-name="parenright" d="M413 406Q413 319 389 237T324 84T233 -45T126 -138H41Q91 -104 137 -60T222 36T286 146T324 268L338 353Q344 389 344 427Q344 479 332 527T300 618T251 696T190 760H267Q298 734 324 697T370 615T401 517T413 406Z" />
<glyph unicode="*" glyph-name="asterisk" d="M145 55L92 99L242 267L56 336L86 396L276 332L312 548H384L348 332L553 396L562 332L355 264L450 96L392 55L296 227L145 55Z" />
<glyph unicode="+" glyph-name="plus" d="M230 62L265 272H67L78 338H276L311 548H385L350 338H548L537 272H339L304 62H230Z" />
<glyph unicode="," glyph-name="comma" d="M237 135H364L205 -141H139L237 135Z" />
<glyph unicode="-" glyph-name="hyphen" d="M157 263L171 345H457L443 263H157Z" />
<glyph unicode="." glyph-name="period" d="M257 -9Q222 -9 207 4T192 36Q192 42 193 50T196 68Q201 95 220 111T277 127Q312 127 327 114T342 82Q342 76 341 68T338 50Q333 23 314 7T257 -9Z" />
<glyph unicode="/" glyph-name="slash" d="M25 -138L521 760H594L97 -138H25Z" />
<glyph unicode="0" glyph-name="zero" d="M260 -12Q157 -12 110 49T62 225Q62 269 67 322T87 429T124 533T181 623T263 686T372 710Q475 710 522 649T570 473Q570 429 565 376T545 269T508 165T451 75T369 12T260 -12ZM266 60Q347 60 397 122T465 292L484 406Q488
429 489 450T491 488Q491 560 462 599T366 638Q285 638 235 576T167 406L148 292Q144 269 143 248T141 210Q141 138 170 99T266 60ZM307 291Q277 291 264 301T251 328Q251 333 252 340T255 356Q259 379 274 393T325 407Q355 407 368 397T381 370Q381 365 380 358T377
342Q373 319 358 305T307 291Z" />
<glyph unicode="1" glyph-name="one" d="M42 0L54 72H254L349 636H341L138 472L97 525L310 698H441L336 72H521L509 0H42Z" />
<glyph unicode="2" glyph-name="two" d="M493 0H29L43 85L311 296Q353 329 380 354T423 401T448 447T462 499Q465 517 465 531Q465 579 433 609T342 639Q310 639 285 630T241 604T206 566T179 519L107 547Q122 581 143 610T195 662T263 697T351 710Q398 710 435
697T498 661T537 604T551 532Q551 490 538 453T501 382T441 314T359 245L132 71H505L493 0Z" />
<glyph unicode="3" glyph-name="three" d="M293 401Q365 401 407 432T459 518Q461 526 462 534T463 550Q463 592 432 615T349 639Q292 639 253 613T188 549L133 596Q151 619 172 639T221 676T281 701T357 710Q400 710 435 700T496 670T536 621T550 555Q550 522
539 493T507 439T455 396T384 369L383 365Q436 357 471 319T507 214Q507 169 489 128T436 56T352 7T239 -12Q191 -12 156 -2T96 26T53 66T24 111L92 153Q102 133 114 116T145 86T188 66T248 59Q320 59 363 91T417 186Q419 196 420 205T421 223Q421 274 389 302T287
331H204L216 401H293Z" />
<glyph unicode="4" glyph-name="four" d="M337 0L360 137H15L28 214L421 698H532L449 205H554L543 137H438L415 0H337ZM103 205H371L440 614H436L103 205Z" />
<glyph unicode="5" glyph-name="five" d="M559 627H250L185 358H191Q222 393 256 413T343 433Q428 433 478 385T529 252Q529 201 512 153T461 69T375 10T256 -12Q215 -12 183 -2T124 25T79 63T48 107L118 153Q129 132 142 115T172 86T211 67T266 60Q338 60 382
97T438 203Q440 217 441 225T442 247Q442 302 410 333T312 364Q262 364 231 347T173 305L105 314L193 698H571L559 627Z" />
<glyph unicode="6" glyph-name="six" d="M259 -12Q163 -12 112 44T61 201Q61 281 91 356T169 496T276 613T392 698H502Q438 657 387 618T294 537T221 445T164 336L169 334Q201 376 245 405T353 434Q437 434 486 386T535 252Q535 201 516 153T462 69T375 10T259
-12ZM271 58Q342 58 388 97T447 208Q449 217 450 227T451 248Q451 305 419 335T322 366Q251 366 205 327T146 216Q144 207 143 197T142 176Q142 119 174 89T271 58Z" />
<glyph unicode="7" glyph-name="seven" d="M131 0L503 627H199L178 497H104L137 698H602L590 626L222 0H131Z" />
<glyph unicode="8" glyph-name="eight" d="M255 -12Q201 -12 161 1T94 36T54 90T41 160Q41 234 86 288T215 364L216 372Q169 389 145 424T120 508Q120 546 136 582T185 646T264 692T374 710Q470 710 520 669T570 556Q570 526 560 498T531 446T484 402T420 371L419
363Q475 347 505 311T535 207Q535 163 517 124T464 54T376 6T255 -12ZM267 58Q345 58 390 92T446 185Q448 199 449 208T451 228Q451 279 415 306T311 334Q233 334 188 300T132 207Q130 193 129 184T127 164Q127 113 163 86T267 58ZM324 401Q393 401 433 432T482
513Q485 531 485 546Q485 591 454 615T362 640Q293 640 253 609T204 528Q201 510 201 495Q201 450 232 426T324 401Z" />
<glyph unicode="9" glyph-name="nine" d="M561 497Q561 417 531 342T453 202T346 85T230 0H119Q183 41 234 80T327 161T400 253T458 362L453 364Q420 322 377 293T269 264Q185 264 136 312T87 446Q87 497 106 545T160 629T247 688T363 710Q459 710 510 654T561
497ZM300 332Q371 332 417 371T476 482Q478 491 479 501T480 522Q480 579 448 609T351 640Q280 640 234 601T175 490Q173 481 172 471T171 450Q171 393 203 363T300 332Z" />
<glyph unicode=":" glyph-name="colon" d="M257 -9Q222 -9 207 4T192 36Q192 42 193 50T196 68Q201 95 220 111T277 127Q312 127 327 114T342 82Q342 76 341 68T338 50Q333 23 314 7T257 -9ZM323 389Q288 389 273 402T258 434Q258 440 259 448T262 466Q267 493
286 509T343 525Q378 525 393 512T408 480Q408 474 407 466T404 448Q399 421 380 405T323 389Z" />
<glyph unicode=";" glyph-name="semicolon" d="M237 135H364L205 -141H139L237 135ZM323 389Q288 389 273 402T258 434Q258 440 259 448T262 466Q267 493 286 509T343 525Q378 525 393 512T408 480Q408 474 407 466T404 448Q399 421 380 405T323 389Z" />
<glyph unicode="&lt;" glyph-name="less" d="M88 268L101 344L569 593L555 508L168 305L167 297L486 95L473 20L88 268Z" />
<glyph unicode="=" glyph-name="equal" d="M84 373L95 439H566L555 373H84ZM51 174L62 240H533L522 174H51Z" />
<glyph unicode="&gt;" glyph-name="greater" d="M63 106L450 308L451 316L132 519L145 593L530 345L517 269L49 20L63 106Z" />
<glyph unicode="?" glyph-name="question" d="M233 215L259 372Q312 379 349 389T410 416T448 457T468 515Q470 524 470 533T470 544Q470 588 439 613T356 639Q292 639 256 606T199 520L128 550Q140 581 160 610T209 661T276 697T363 710Q454 710 504 665T555
543Q555 492 537 453T489 386T417 340T327 315L310 215H233ZM239 -9Q204 -9 189 4T174 36Q174 42 175 50T178 68Q183 95 202 111T259 127Q294 127 309 114T324 82Q324 76 323 68T320 50Q315 23 296 7T239 -9Z" />
<glyph unicode="@" glyph-name="at" d="M409 -112H292Q227 -112 182 -95T110 -43T70 42T57 159Q57 228 75 338Q91 438 115 509T172 624T251 689T356 710Q408 710 447 696T511 656T549 595T562 520Q562 506 561 493T557 463L496 91H426L440 176H436Q422 136 394
108T320 79Q273 79 244 116T215 237Q215 286 226 335T258 422T311 484T385 508Q426 508 448 486T478 429H482L487 461Q489 475 490 489T492 517Q492 577 462 613T357 649Q321 649 290 638T234 597T190 519T159 396L134 244Q132 233 131 218T129 187T128 158T127
138Q127 94 135 59T162 0T214 -36T295 -49H418L409 -112ZM347 138Q370 138 387 149T418 179Q432 199 441 220T455 269L472 370Q474 383 472 397T462 422T439 441T402 449Q359 449 336 418T302 324L292 264Q290 250 289 239T288 218Q288 177 303 158T347 138Z" />
<glyph unicode="A" glyph-name="A" d="M442 0L417 199H171L79 0H-9L321 698H431L528 0H442ZM366 614H357L202 272H409L366 614Z" />
<glyph unicode="B" glyph-name="B" d="M163 698H388Q470 698 513 655T556 537Q556 468 519 425T424 366L423 362Q446 355 466 344T500 316T523 276T531 222Q531 178 515 138T471 68T402 19T313 0H46L163 698ZM296 72Q356 72 392 98T438 178L443 208Q445 217 446
226T447 245Q447 283 419 305T338 327H182L139 72H296ZM336 395Q393 395 424 419T464 489L469 519Q472 537 472 551Q472 591 446 608T374 626H231L193 395H336Z" />
<glyph unicode="C" glyph-name="C" d="M287 -12Q178 -12 128 53T78 240Q78 280 83 330T103 433T140 535T197 624T280 686T391 710Q439 710 473 696T529 660T564 609T582 552L508 528Q503 550 495 570T472 605T437 629T385 638Q301 638 252 575T184 403L168 307Q164
284 162 262T160 219Q160 147 192 104T296 60Q326 60 349 68T391 94T429 137T467 198L532 165Q512 124 489 91T437 35T371 0T287 -12Z" />
<glyph unicode="D" glyph-name="D" d="M172 698H343Q398 698 439 681T509 634T551 563T565 473Q565 351 543 262T480 115T380 28T248 0H55L172 698ZM255 72Q424 72 460 289L476 385Q479 403 481 426T483 471Q483 547 445 586T333 626H242L149 72H255Z" />
<glyph unicode="E" glyph-name="E" d="M47 0L164 698H592L580 626H234L194 390H529L517 318H182L141 72H489L477 0H47Z" />
<glyph unicode="F" glyph-name="F" d="M47 0L164 698H602L590 626H234L194 389H521L509 317H182L129 0H47Z" />
<glyph unicode="G" glyph-name="G" d="M421 102H416Q402 79 387 58T351 22T306 -3T246 -12Q157 -12 112 51T66 240Q66 280 71 330T91 433T128 535T186 624T268 686T379 710Q427 710 461 696T517 660T552 609T570 552L496 528Q491 550 483 570T460 605T425 629T373
638Q330 638 297 621T239 574T198 500T172 402L156 306Q152 283 151 261T150 225Q150 148 178 103T272 58Q308 58 336 71T386 107T421 160T441 224L450 278H304L315 344H537L480 0H404L421 102Z" />
<glyph unicode="H" glyph-name="H" d="M446 318H174L121 0H39L156 698H238L186 390H458L510 698H592L475 0H393L446 318Z" />
<glyph unicode="I" glyph-name="I" d="M41 0L52 66H227L322 632H147L158 698H590L579 632H404L309 66H484L473 0H41Z" />
<glyph unicode="J" glyph-name="J" d="M553 698L465 170Q449 76 392 32T249 -12Q168 -12 117 29T58 151L137 168Q140 146 146 127T164 93T198 70T251 61Q365 61 387 195L459 626H205L217 698H553Z" />
<glyph unicode="K" glyph-name="K" d="M287 345L162 221L125 0H43L160 698H242L181 335H185L319 477L541 698H645L347 402L530 0H440L287 345Z" />
<glyph unicode="L" glyph-name="L" d="M78 0L195 698H276L172 72H503L491 0H78Z" />
<glyph unicode="M" glyph-name="M" d="M472 350L510 574H503L292 214L203 574H196L159 350L101 0H26L143 698H243L317 389H323L500 698H605L488 0H413L472 350Z" />
<glyph unicode="N" glyph-name="N" d="M223 602H216L115 0H39L156 698H275L408 96H415L516 698H592L475 0H356L223 602Z" />
<glyph unicode="O" glyph-name="O" d="M260 -12Q157 -12 110 49T62 225Q62 269 67 322T86 429T123 533T180 623T262 686T372 710Q475 710 522 649T570 473Q570 429 565 376T546 269T509 165T452 75T370 12T260 -12ZM266 60Q347 60 396 122T463 292L482 406Q486
429 487 450T489 488Q489 560 461 599T366 638Q285 638 236 576T169 406L150 292Q146 269 145 248T143 210Q143 138 171 99T266 60Z" />
<glyph unicode="P" glyph-name="P" d="M47 0L164 698H413Q501 698 542 653T584 534Q584 422 525 360T355 297H179L129 0H47ZM191 369H363Q420 369 451 396T491 468L497 504Q500 522 500 543Q500 585 475 605T403 626H234L191 369Z" />
<glyph unicode="Q" glyph-name="Q" d="M384 -182Q361 -182 346 -170T316 -137L229 -10Q142 -2 102 58T62 225Q62 269 67 322T86 429T123 533T180 623T262 686T372 710Q475 710 522 649T570 473Q570 431 565 383T549 284T518 187T471 100T405 32T316 -6L388 -114L401
-117L501 -27L545 -64L484 -122Q468 -137 456 -148T432 -167T409 -178T384 -182ZM266 60Q347 60 396 122T463 292L482 406Q486 429 487 450T489 488Q489 560 461 599T366 638Q285 638 236 576T169 406L150 292Q146 269 145 248T143 210Q143 138 171 99T266 60Z"
/>
<glyph unicode="R" glyph-name="R" d="M129 0H47L164 698H413Q501 698 542 653T584 534Q584 429 529 369T374 302L501 0H412L293 299H179L129 0ZM363 369Q414 369 448 393T491 468L497 504Q500 522 500 543Q500 585 475 605T403 626H234L191 369H363Z" />
<glyph unicode="S" glyph-name="S" d="M266 -12Q175 -12 116 22T25 111L87 160Q119 109 163 84T270 59Q352 59 400 98T448 205Q448 248 424 274T338 314L263 331Q180 350 142 392T104 502Q104 550 122 588T174 654T253 695T355 710Q400 710 436 701T501 676T549
640T583 595L523 551Q494 595 453 617T351 640Q275 640 232 605T188 508Q188 460 216 436T301 399L374 382Q461 362 496 319T532 212Q532 162 514 121T461 51T377 5T266 -12Z" />
<glyph unicode="T" glyph-name="T" d="M403 626L298 0H216L321 626H87L99 698H649L637 626H403Z" />
<glyph unicode="U" glyph-name="U" d="M236 698L169 298Q164 271 162 252T157 218T155 193T154 173Q154 147 159 126T176 91T211 68T266 60Q315 60 345 74T393 115T420 183T439 274L510 698H592L524 291Q511 213 495 156T452 62T382 6T269 -12Q162 -12 118 34T73
166Q73 198 78 240T91 323L154 698H236Z" />
<glyph unicode="V" glyph-name="V" d="M201 0L109 698H187L231 349L266 81H271L392 349L549 698H635L313 0H201Z" />
<glyph unicode="W" glyph-name="W" d="M46 0L107 698H180L143 305L122 82H130L293 516H387L408 82H416L467 298L562 698H637L466 0H345L330 421H322L167 0H46Z" />
<glyph unicode="X" glyph-name="X" d="M533 0H445L381 141L313 290H309L191 141L80 0H-16L275 360L114 698H202L264 563L328 425H332L441 563L547 698H643L367 353L533 0Z" />
<glyph unicode="Y" glyph-name="Y" d="M216 0L262 272L90 698H178L249 515L308 354H312L427 515L558 698H656L345 279L298 0H216Z" />
<glyph unicode="Z" glyph-name="Z" d="M508 0H5L17 74L503 626H129L141 698H609L597 624L111 72H520L508 0Z" />
<glyph unicode="[" glyph-name="bracketleft" d="M160 -138L310 760H586L576 699H367L238 -77H446L436 -138H160Z" />
<glyph unicode="\" glyph-name="backslash" d="M380 -138L182 760H245L443 -138H380Z" />
<glyph unicode="]" glyph-name="bracketright" d="M436 760L286 -138H10L20 -77H229L358 699H149L160 760H436Z" />
<glyph unicode="^" glyph-name="asciicircum" d="M507 293L371 630H367L123 293L65 328L334 698H422L572 320L507 293Z" />
<glyph unicode="_" glyph-name="underscore" d="M2 -167L14 -95H489L477 -167H2Z" />
<glyph unicode="`" glyph-name="grave" d="M229 752L303 779L355 605L304 585L229 752Z" />
<glyph unicode="a" glyph-name="a" d="M383 0L403 122H400Q370 61 328 25T217 -12Q139 -12 98 38T56 188Q56 240 68 299T109 410T185 494T300 528Q357 528 395 503T451 426H454L469 516H547L461 0H383ZM244 57Q276 57 307 70T365 114Q385 136 400 166T422 232L441
346Q450 400 416 429T323 459Q248 459 206 414T151 297L139 225Q137 211 136 201T135 180Q135 122 162 90T244 57Z" />
<glyph unicode="b" glyph-name="b" d="M177 740H255L197 394H200Q230 455 272 491T383 528Q461 528 502 478T544 328Q544 276 532 217T491 106T415 22T300 -12Q243 -12 205 13T149 90H146L131 0H53L177 740ZM276 57Q351 57 394 102T449 219L461 291Q463 305 464
315T465 336Q465 394 438 426T356 459Q324 459 293 446T235 402Q215 380 200 350T178 284L159 170Q150 116 184 87T276 57Z" />
<glyph unicode="c" glyph-name="c" d="M270 -12Q222 -12 186 4T125 48T88 117T75 206Q75 280 96 339T153 441T237 505T341 528Q382 528 412 518T465 492T500 452T521 404L454 378Q439 426 410 443T332 460Q266 460 225 417T169 293L159 233Q156 215 155 205T154
185Q154 119 188 88T280 56Q297 56 314 60T352 77T397 115T452 182L508 149Q484 110 459 80T406 29T344 -1T270 -12Z" />
<glyph unicode="d" glyph-name="d" d="M403 122H400Q370 61 328 25T217 -12Q139 -12 98 38T56 188Q56 240 68 299T109 410T185 494T300 528Q357 528 395 503T451 426H454L507 740H585L461 0H383L403 122ZM244 57Q276 57 307 70T365 114Q385 136 400 166T422 232L441
346Q450 400 416 429T323 459Q248 459 206 414T151 297L139 225Q137 211 136 201T135 180Q135 122 162 90T244 57Z" />
<glyph unicode="e" glyph-name="e" d="M277 -12Q179 -12 126 42T73 209Q73 279 94 337T152 438T242 504T357 528Q395 528 427 519T482 493T519 449T532 389Q532 362 520 333T468 279T354 237T156 217Q155 209 155 203T155 194Q155 167 160 142T179 98T218 67T284
55Q312 55 334 61T377 81T417 116T459 169L514 135Q470 63 415 26T277 -12ZM350 463Q272 463 223 416T163 281L162 271Q256 274 313 285T401 313T442 348T452 386Q452 402 447 416T429 440T398 457T350 463Z" />
<glyph unicode="f" glyph-name="f" d="M196 -212Q180 -212 166 -206T135 -185T97 -149T45 -93L-16 -26L37 22L191 -142L209 -138L307 449H123L134 516H318L336 623Q344 674 377 707T468 740H641L630 673H422L396 516H605L594 449H385L292 -107Q289 -128 282 -147T264
-180T235 -203T196 -212Z" />
<glyph unicode="g" glyph-name="g" d="M212 -212Q88 -212 31 -141L85 -89Q105 -115 137 -129T217 -143Q288 -143 330 -107T386 15L407 139H403Q374 77 331 41T219 5Q139 5 98 55T57 201Q57 251 70 308T112 414T187 495T300 528Q357 528 395 503T451 426H454L469
516H547L461 0Q441 -114 375 -163T212 -212ZM246 74Q278 74 309 87T368 131Q382 147 400 176T425 248L441 346Q450 400 416 429T323 459Q250 459 207 415T151 299L142 245Q140 231 139 222T137 201Q137 139 164 107T246 74Z" />
<glyph unicode="h" glyph-name="h" d="M183 740H261L203 394H207Q236 456 276 492T379 528Q444 528 481 489T519 379Q519 364 518 347T513 312L461 0H383L434 305Q437 323 438 337T439 360Q439 406 418 432T353 459Q319 459 293 444T244 403Q240 398 232 388T214
362T197 327T185 285L137 0H59L183 740Z" />
<glyph unicode="i" glyph-name="i" d="M340 631Q308 631 295 643T282 671Q282 677 283 684T286 700Q290 723 306 735T352 748Q384 748 397 736T410 708Q410 702 409 695T406 679Q402 656 386 644T340 631ZM272 -12Q234 -12 215 7T195 57Q195 67 196 77T200 97L268
449H82L93 516H359L272 66L295 57L492 227L539 183L448 99Q413 66 388 45T342 11T306 -7T272 -12Z" />
<glyph unicode="j" glyph-name="j" d="M275 -212Q260 -212 246 -207T216 -188T177 -151T123 -93L58 -22L111 26L269 -142L287 -138L385 449H172L183 516H474L370 -107Q367 -128 360 -147T342 -180T314 -203T275 -212ZM457 631Q425 631 412 643T399 671Q399 677
400 684T403 700Q407 723 423 735T469 748Q501 748 514 736T527 708Q527 702 526 695T523 679Q519 656 503 644T457 631Z" />
<glyph unicode="k" glyph-name="k" d="M183 740H261L203 394H207Q235 454 277 491T384 528Q446 528 482 494T519 401Q519 378 511 352T480 300T417 252T310 213L381 58L394 56L527 178L570 133L499 62Q460 23 434 6T379 -12Q353 -12 336 2T302 51L221 227Q284
242 325 260T392 299T428 341T439 386Q439 421 418 441T355 461Q317 461 290 445T242 402Q220 375 205 346T185 285L137 0H59L183 740Z" />
<glyph unicode="l" glyph-name="l" d="M249 -12Q208 -12 191 8T174 59Q174 66 174 75T177 91L289 673H107L118 740H381L251 65L276 57L481 231L526 187L422 93Q386 60 360 40T315 8T280 -8T249 -12Z" />
<glyph unicode="m" glyph-name="m" d="M12 0L98 516H170L157 435H161Q179 474 204 501T273 528Q317 528 336 500T352 430H355Q375 475 405 501T480 528Q523 528 545 503T568 429Q568 415 566 396T561 359L501 0H429L487 346Q490 364 492 380T494 408Q494 464 450
464Q429 464 414 453T385 424Q371 404 362 381T349 334L293 0H221L279 346Q285 382 285 405Q285 437 275 450T243 464Q222 464 205 453T176 424Q162 404 153 381T140 334L84 0H12Z" />
<glyph unicode="n" glyph-name="n" d="M59 0L145 516H223L203 394H207Q236 456 276 492T379 528Q444 528 481 489T519 379Q519 364 518 347T513 312L461 0H383L434 305Q437 323 438 337T439 360Q439 406 418 432T353 459Q319 459 293 444T244 403Q240 398 232
388T214 362T197 327T185 285L137 0H59Z" />
<glyph unicode="o" glyph-name="o" d="M265 -12Q215 -12 178 4T115 48T77 117T64 206Q64 280 85 339T142 441T228 505T334 528Q384 528 422 512T485 468T523 399T536 310Q536 236 515 177T458 75T372 11T265 -12ZM269 56Q342 56 385 100T442 222L452 282Q455 300
456 312T457 333Q457 399 423 429T331 460Q258 460 215 416T158 294L148 234Q145 216 144 204T143 183Q143 117 177 87T269 56Z" />
<glyph unicode="p" glyph-name="p" d="M139 516H217L197 394H200Q230 455 272 491T383 528Q461 528 502 478T544 328Q544 276 532 217T491 106T415 22T300 -12Q243 -12 205 13T149 90H146L97 -200H19L139 516ZM277 57Q352 57 394 102T449 219L461 291Q463 305
464 315T465 336Q465 394 438 426T356 459Q324 459 293 446T235 402Q215 380 200 350T178 284L159 170Q150 116 184 87T277 57Z" />
<glyph unicode="q" glyph-name="q" d="M403 122H400Q370 61 328 25T217 -12Q139 -12 98 38T56 188Q56 240 68 299T109 410T185 494T300 528Q357 528 395 503T451 426H454L469 516H547L427 -200H349L403 122ZM244 57Q276 57 307 70T365 114Q385 136 400 166T422
232L441 346Q450 400 416 429T323 459Q248 459 206 414T151 297L139 225Q137 211 136 201T135 180Q135 122 162 90T244 57Z" />
<glyph unicode="r" glyph-name="r" d="M178 0L253 449H108L119 516H342L319 378H324Q337 409 354 434T393 478T445 506T511 516H589L576 438H488Q443 438 413 426T360 386Q355 380 347 370T329 344T313 310T301 269L256 0H178Z" />
<glyph unicode="s" glyph-name="s" d="M268 -12Q193 -12 138 13T48 85L106 131Q136 93 176 74T275 54Q344 54 383 80T422 153Q422 189 401 202T347 221L272 232Q244 236 217 243T168 266T133 304T119 364Q119 405 136 435T184 486T254 517T340 528Q408 528 456
507T533 449L478 401Q471 411 460 422T431 442T389 456T331 462Q264 462 230 437T195 370Q195 351 201 339T219 320T244 309T275 302L348 290Q373 286 399 280T448 260T484 223T499 161Q499 121 483 89T436 35T363 0T268 -12Z" />
<glyph unicode="t" glyph-name="t" d="M239 -12Q204 -12 185 7T165 62Q165 69 165 81T168 101L228 449H79L90 516H195Q221 516 233 526T251 563L274 698H348L317 516H530L519 449H306L242 67L262 55L487 205L526 155L413 75Q378 50 353 34T307 7T270 -7T239 -12Z" />
<glyph unicode="u" glyph-name="u" d="M399 122H395Q366 60 326 24T223 -12Q158 -12 121 27T83 137Q83 169 89 204L141 516H219L168 211Q165 193 164 179T163 156Q163 110 184 84T249 57Q283 57 309 72T358 113Q362 118 370 128T388 154T405 189T417 231L465 516H543L457
0H379L399 122Z" />
<glyph unicode="v" glyph-name="v" d="M263 516L195 62L208 53Q270 61 317 91T397 165T445 263T461 373Q461 407 454 439T433 500L508 522Q524 492 532 455T541 377Q541 298 514 228T439 106T330 23T197 -8Q158 -8 139 11T120 64Q120 72 121 82T124 101L176 449H66L77
516H263Z" />
<glyph unicode="w" glyph-name="w" d="M133 -10Q88 -10 66 17T43 92Q43 108 44 123T49 159L108 516H178L122 173Q116 138 116 111Q116 81 127 68T161 54Q181 54 196 65T225 94Q239 114 246 140T258 186L315 516H383L327 173Q324 154 323 140T322 112Q322 81 332
68T366 54Q394 54 418 82T459 155T487 256T497 367Q497 405 491 441T474 501L540 521Q552 495 559 456T567 371Q567 280 547 200T489 66Q434 -10 350 -10Q330 -10 314 -5T286 13T269 46T265 95H260Q238 46 210 18T133 -10Z" />
<glyph unicode="x" glyph-name="x" d="M106 -12Q7 -12 7 107Q7 116 7 131T12 174L85 180Q83 163 82 149T81 123Q81 85 91 68T125 50Q159 50 185 80T228 154T254 247T263 337Q263 347 263 363T260 397T255 431T247 459L232 466L74 369L43 416L109 465Q147 493 181
510T246 528Q275 528 291 512T314 471T323 414T325 351L332 350Q352 445 393 486T494 528Q593 528 593 409Q593 400 593 384T588 342L515 336Q517 353 518 367T519 393Q519 431 509 448T475 466Q440 466 415 436T372 362T346 269T337 179Q337 168 337 152T340 119T345
85T355 57L370 50L518 154L551 108L501 65Q446 18 413 3T356 -12Q326 -12 310 3T286 44T277 101T275 165L268 166Q248 71 207 30T106 -12Z" />
<glyph unicode="y" glyph-name="y" d="M208 -212Q84 -212 27 -141L81 -89Q101 -115 133 -129T213 -143Q285 -143 326 -107T382 15L402 137H399Q370 75 330 39T226 3Q161 3 123 42T85 152Q85 166 86 181T91 216L141 516H219L170 223Q167 206 166 193T165 171Q165
125 186 99T252 72Q286 72 312 87T361 128Q365 133 373 143T391 169T408 204T420 246L465 516H543L457 0Q437 -114 371 -163T208 -212Z" />
<glyph unicode="z" glyph-name="z" d="M425 -10Q404 -10 380 -6T324 10L145 70L140 66L130 0H51L62 78L420 407Q358 438 321 450T255 462Q226 462 209 452T182 425T169 386T166 341H102V353Q102 438 142 483T258 528Q300 528 343 512T445 461L465 449L470 453L480
516H559L548 440L190 112L445 53L456 64L425 200L482 220L498 180Q509 154 516 127T524 76Q524 43 498 17T425 -10Z" />
<glyph unicode="{" glyph-name="braceleft" d="M253 -138Q217 -138 200 -120T183 -74Q183 -71 183 -68T185 -56T188 -33T194 7Q198 34 206 54T226 90T249 118T272 142Q298 168 306 183T314 215Q314 281 208 281H111L121 341H218Q282 341 315 361T349 423Q349 449
329 480Q317 500 305 521T293 581Q293 585 293 590T295 605T298 633T306 679Q311 714 336 737T402 760H577L567 699H377Q371 666 368 646T364 615T362 598T361 590Q361 564 368 548T386 515Q397 496 407 475T417 425Q417 380 386 351T292 311V307Q337 302 360 280T383
222Q383 188 364 162T318 107Q298 86 283 64T261 1L248 -77H437L427 -138H253Z" />
<glyph unicode="|" glyph-name="bar" d="M200 -138L350 760H418L268 -138H200Z" />
<glyph unicode="}" glyph-name="braceright" d="M367 760Q403 760 420 742T437 696Q437 693 437 689T435 677T432 655T426 615Q422 588 414 568T394 532T371 504T348 480Q322 454 314 439T306 407Q306 341 412 341H509L499 281H402Q338 281 305 261T271 199Q271
173 291 142Q303 122 315 101T327 41Q327 37 327 32T325 17T321 -11T314 -57Q309 -92 284 -115T218 -138H43L53 -77H243Q249 -44 252 -24T256 7T258 24T259 32Q259 58 251 74T234 107Q223 126 213 147T203 197Q203 242 234 271T328 311V315Q283 320 260 342T237
400Q237 434 256 460T302 515Q312 525 320 535T336 558T350 585T359 621L372 699H183L193 760H367Z" />
<glyph unicode="~" glyph-name="asciitilde" d="M411 237Q378 237 353 247T304 269Q278 283 253 294T203 306Q173 306 153 287T115 237L58 270Q81 318 117 345T205 373Q238 373 263 363T312 341Q338 327 363 316T413 304Q443 304 463 323T501 373L558 340Q535
292 499 265T411 237Z" />
<glyph unicode="&#xa0;" glyph-name="uni00A0" />
<glyph unicode="&#xa1;" glyph-name="exclamdown" d="M183 -182L217 21L289 283H320L303 21L269 -182H183ZM323 389Q288 389 273 401T258 433Q258 438 259 445T262 466Q267 493 285 509T343 525Q378 525 393 513T408 481Q408 476 407 469T404 448Q399 421 381
405T323 389Z" />
<glyph unicode="&#xa2;" glyph-name="cent" d="M226 -8Q151 6 113 63T75 206Q75 275 93 332T144 430T221 496T316 526L333 630H395L378 525Q441 517 475 483T521 404L454 378Q441 416 420 434T364 458L298 57Q313 58 329 64T363 84T403 121T452 182L508 149Q485
112 461 83T411 34T355 3T288 -11L271 -114H209L226 -8ZM154 185Q154 131 177 101T240 60L306 458Q252 450 217 408T169 293L159 233Q156 215 155 205T154 185Z" />
<glyph unicode="&#xa3;" glyph-name="sterling" d="M463 -12Q438 -12 406 -4T338 12L111 65L101 0H18L30 79Q58 92 81 107T120 145T146 196T156 265Q156 288 153 306H52L63 374H141Q136 394 134 414T131 458Q131 513 148 559T197 638T274 691T373 710Q420 710
455 697T516 664T555 618T574 567L503 539Q491 581 460 611T368 641Q293 641 254 591T214 450Q214 429 216 411T222 374H402L391 306H234Q236 298 236 288T237 268Q237 244 232 221T215 178T185 145T140 129L138 125L464 62L475 73L443 203L505 222L521 184Q532
157 539 128T547 75Q547 37 526 13T463 -12Z" />
<glyph unicode="&#xa5;" glyph-name="yen" d="M44 68H229L261 256H75L86 324H228L97 698H184L305 324H309L556 698H651L394 324H536L525 256H339L307 68H494L483 0H33L44 68Z" />
<glyph unicode="&#xa6;" glyph-name="brokenbar" d="M290 400L350 760H418L358 400H290ZM200 -138L260 222H328L268 -138H200Z" />
<glyph unicode="&#xa7;" glyph-name="section" d="M449 19Q449 -19 434 -51T391 -106T324 -142T239 -155Q191 -155 144 -141T67 -95L118 -43Q139 -64 170 -75T240 -87Q300 -87 335 -60T370 11Q370 46 347 66T279 100L219 118Q179 130 154 145T114 179T94 217T88
258Q88 314 121 354T228 414V421Q198 441 184 471T169 536Q169 574 184 606T227 661T293 697T379 710Q427 710 474 696T551 650L500 598Q479 619 448 630T378 642Q318 642 283 615T248 544Q248 509 271 489T339 455L399 437Q439 425 464 410T504 376T524 338T530
297Q530 241 497 201T390 141V134Q420 114 434 84T449 19ZM452 280Q452 314 430 337T347 377L287 394Q280 396 274 398T262 402Q217 382 192 349T166 274Q166 240 188 217T271 177L331 160Q338 158 344 156T356 152Q401 172 426 205T452 280Z" />
<glyph unicode="&#xa8;" glyph-name="dieresis" d="M226 619Q197 619 186 630T174 655Q174 660 175 666T178 680Q183 700 195 711T237 723Q266 723 277 712T289 687Q289 682 288 676T285 662Q280 642 268 631T226 619ZM412 619Q383 619 372 630T360 655Q360 660
361 666T364 680Q369 700 381 711T423 723Q452 723 463 712T475 687Q475 682 474 676T471 662Q466 642 454 631T412 619Z" />
<glyph unicode="&#xa9;" glyph-name="copyright" d="M271 18Q214 18 166 37T84 93T30 182T11 300Q11 384 37 454T108 574T217 652T356 680Q413 680 460 661T542 605T596 516T616 398Q616 314 590 244T519 124T410 46T271 18ZM276 72Q328 72 373 89T453 137T512
212T545 309Q552 350 554 368T556 398Q556 442 545 483T509 556T445 607T351 626Q299 626 254 609T174 561T115 486T82 389Q74 348 73 330T71 300Q71 256 82 215T118 142T182 91T276 72ZM290 172Q227 172 195 210T162 317Q162 360 175 398T212 465T269 511T343
528Q391 528 420 506T461 445L403 421Q397 445 383 458T336 472Q292 472 270 447T241 379L232 322Q231 314 231 308T230 295Q230 263 245 246T294 228Q325 228 347 243T388 283L433 252Q410 217 375 195T290 172Z" />
<glyph unicode="&#xaa;" glyph-name="ordfeminine" d="M379 355L388 412H380Q367 389 342 369T278 349Q224 349 198 373T172 436Q172 553 338 553H412L417 580Q419 587 419 593T419 605Q419 632 401 645T348 658Q316 658 291 643T251 606L213 641Q231 666 266
688T355 710Q414 710 448 684T482 613Q482 606 482 597T479 577L443 355H379ZM331 506Q289 506 267 496T239 463Q237 453 236 447T235 437Q235 400 291 400Q329 400 361 417T398 465L405 506H331Z" />
<glyph unicode="&#xab;" glyph-name="guillemotleft" d="M501 57L326 231L339 309L572 483L587 423L414 265L535 107L501 57ZM474 57L299 231L312 309L545 483L560 423L387 265L508 107L474 57Z" />
<glyph unicode="&#xac;" glyph-name="logicalnot" d="M427 78L459 272H67L78 338H538L495 78H427Z" />
<glyph unicode="&#xad;" glyph-name="uni00AD" d="M157 263L171 345H457L443 263H157Z" />
<glyph unicode="&#xae;" glyph-name="registered" d="M311 346Q276 346 246 357T193 390T159 440T146 507Q146 548 161 585T204 649T269 693T349 710Q384 710 414 699T467 666T501 616T514 549Q514 508 499 471T456 406T391 362T311 346ZM309 386Q372 386 411
418T461 505Q465 523 466 531T467 550Q467 602 440 636T351 670Q288 670 249 638T199 551Q195 533 194 525T193 506Q193 454 220 420T309 386ZM285 439H246L277 624H361Q385 624 398 612T411 577Q411 554 398 538T364 515L397 439H353L326 509H297L285 439ZM337
538Q362 538 367 562Q368 566 368 569T368 574Q368 593 347 593H311L302 538H337Z" />
<glyph unicode="&#xaf;" glyph-name="overscore" d="M191 705H468L457 638H180L191 705Z" />
<glyph unicode="&#xb0;" glyph-name="degree" d="M331 368Q297 368 268 378T218 408T186 457T174 522Q174 561 188 595T226 655T285 695T361 710Q395 710 424 700T474 670T506 621T518 556Q518 517 504 483T466 423T407 383T331 368ZM333 431Q358 431 379 440T416
466T440 505T449 553Q449 596 426 621T359 647Q333 647 312 638T276 612T252 573T243 525Q243 482 266 457T333 431Z" />
<glyph unicode="&#xb1;" glyph-name="plusminus" d="M245 151L278 351H79L90 417H288L321 617H395L362 417H560L550 351H352L319 151H245ZM21 0L32 66H505L494 0H21Z" />
<glyph unicode="&#xb2;" glyph-name="twosuperior" d="M442 329H181L191 388L322 484Q342 499 357 510T383 533T400 556T410 584Q412 594 412 604Q412 626 395 638T352 651Q319 651 301 632T273 591L221 614Q237 651 268 677T356 704Q380 704 402 698T441 680T468
648T478 604Q478 575 466 552T435 510T394 475T353 445L259 378H450L442 329Z" />
<glyph unicode="&#xb3;" glyph-name="threesuperior" d="M337 545Q378 545 392 559T411 595Q412 600 412 604T413 613Q413 631 399 643T358 655Q332 655 309 643T269 607L231 641Q252 669 283 686T360 704Q417 704 446 677T475 611Q475 573 450 549T390 518V516Q419
511 437 492T455 438Q455 389 417 356T311 323Q257 323 225 343T178 392L222 423Q233 400 254 386T313 372Q347 372 366 385T392 429Q394 439 394 445Q394 468 376 482T325 496H283L291 545H337Z" />
<glyph unicode="&#xb4;" glyph-name="acute" d="M320 585L273 613L381 779L449 740L320 585Z" />
<glyph unicode="&#xb5;" glyph-name="mu" d="M23 -200L141 516H219L168 208Q165 191 164 178T163 156Q163 110 184 84T250 57Q284 57 310 72T359 113Q363 118 371 128T389 154T406 189T418 231L465 516H543L458 0H380L400 122H396Q385 98 371 75T336 32T290 0T231
-12Q195 -12 171 5T140 55H136L126 -44L100 -200H23Z" />
<glyph unicode="&#xb6;" glyph-name="paragraph" d="M270 246Q229 246 194 259T134 298T95 361T81 444Q81 503 103 550T162 630T246 680T345 698H576L434 -149H364L495 636H405L274 -149H204L270 246Z" />
<glyph unicode="&#xb7;" glyph-name="middot" d="M297 236Q262 236 247 249T232 281Q232 287 233 295T236 313Q241 340 260 356T317 372Q352 372 367 359T382 327Q382 321 381 313T378 295Q373 268 354 252T297 236Z" />
<glyph unicode="&#xb8;" glyph-name="cedilla" d="M285 -207Q246 -207 223 -195T189 -166L229 -126Q237 -137 250 -145T285 -153Q307 -153 321 -145T335 -119Q335 -108 324 -97T275 -80L246 -76L281 20H331L302 -61L304 -64Q315 -62 325 -61T341 -60Q369 -60 384
-75T400 -119Q400 -142 391 -159T366 -186T329 -202T285 -207Z" />
<glyph unicode="&#xb9;" glyph-name="onesuperior" d="M200 329L208 378H314L358 639L253 582L233 626L365 698H428L374 378H468L460 329H200Z" />
<glyph unicode="&#xba;" glyph-name="ordmasculine" d="M320 349Q290 349 265 359T221 389T193 434T183 491Q183 539 196 579T234 648T294 694T372 710Q402 710 427 700T471 670T499 625T509 568Q509 520 496 480T458 411T398 365T320 349ZM328 403Q373 403 398
429T431 497L441 557Q443 566 443 571T443 582Q443 614 423 635T364 656Q319 656 294 630T261 562L251 502Q249 493 249 488T249 477Q249 445 269 424T328 403Z" />
<glyph unicode="&#xbb;" glyph-name="guillemotright" d="M46 117L219 275L98 433L132 483L307 309L294 231L61 57L46 117ZM275 117L448 275L327 433L361 483L536 309L523 231L290 57L275 117Z" />
<glyph unicode="&#xbc;" glyph-name="onequarter" d="M67 413H160L199 642L104 596L87 642L203 698H270L222 413H305L296 363H59L67 413ZM584 698H656L447 398H375L584 698ZM185 300H257L48 0H-24L185 300ZM447 64H281L291 123L466 335H552L515 112H561L553 64H507L496
0H436L447 64ZM455 112L483 283H480L342 112H455Z" />
<glyph unicode="&#xbd;" glyph-name="onehalf" d="M67 413H160L199 642L104 596L87 642L203 698H270L222 413H305L296 363H59L67 413ZM584 698H656L447 398H375L584 698ZM185 300H257L48 0H-24L185 300ZM297 57L424 148Q458 172 473 190T492 231Q493 236 493 241T494
248Q494 268 482 279T445 290Q420 290 404 276T374 234L323 256Q340 291 370 316T452 341Q506 341 532 315T559 250Q559 206 529 175T454 112L365 50H538L530 0H287L297 57Z" />
<glyph unicode="&#xbe;" glyph-name="threequarters" d="M169 357Q114 357 87 378T48 428L97 458Q105 436 120 422T169 407Q230 407 239 454Q240 460 240 464T240 472Q240 513 180 513H145L153 560H188Q219 560 237 571T258 600Q259 606 259 610T259 618Q259 634
246 644T207 654Q164 654 134 612L96 647Q119 673 147 688T217 704Q267 704 295 683T324 627Q324 589 299 568T240 540V536Q267 531 285 514T303 468Q303 418 266 388T169 357ZM584 698H656L447 398H375L584 698ZM185 300H257L48 0H-24L185 300ZM447 64H281L291
123L466 335H552L515 112H561L553 64H507L496 0H436L447 64ZM455 112L483 283H480L342 112H455Z" />
<glyph unicode="&#xbf;" glyph-name="questiondown" d="M238 -194Q147 -194 97 -149T46 -27Q46 24 64 63T112 130T184 176T274 201L291 301H368L342 144Q289 137 252 127T191 100T153 59T133 1Q131 -8 131 -17T131 -28Q131 -72 162 -97T245 -123Q309 -123 345
-90T402 -4L473 -34Q461 -66 441 -94T392 -145T325 -181T238 -194ZM342 389Q307 389 292 402T277 434Q277 440 278 448T281 466Q286 493 305 509T362 525Q397 525 412 512T427 480Q427 474 426 466T423 448Q418 421 399 405T342 389Z" />
<glyph unicode="&#xc0;" glyph-name="Agrave" d="M442 0L417 199H171L79 0H-9L321 698H431L528 0H442ZM366 614H357L202 272H409L366 614ZM304 918L377 949L429 775L378 755L304 918Z" />
<glyph unicode="&#xc1;" glyph-name="Aacute" d="M442 0L417 199H171L79 0H-9L321 698H431L528 0H442ZM366 614H357L202 272H409L366 614ZM394 755L347 783L455 949L523 910L394 755Z" />
<glyph unicode="&#xc2;" glyph-name="Acircumflex" d="M442 0L417 199H171L79 0H-9L321 698H431L528 0H442ZM366 614H357L202 272H409L366 614ZM463 935L550 788L504 761L408 878L271 761L232 794L365 935H463Z" />
<glyph unicode="&#xc3;" glyph-name="Atilde" d="M442 0L417 199H171L79 0H-9L321 698H431L528 0H442ZM366 614H357L202 272H409L366 614ZM465 782Q440 782 422 791T389 810Q372 821 356 827T325 833Q309 833 294 826T262 804L234 845Q251 865 276 881T333 897Q358
897 376 888T409 869Q426 858 442 852T473 846Q489 846 504 853T536 875L564 834Q547 814 522 798T465 782Z" />
<glyph unicode="&#xc4;" glyph-name="Adieresis" d="M442 0L417 199H171L79 0H-9L321 698H431L528 0H442ZM366 614H357L202 272H409L366 614ZM300 789Q271 789 260 800T248 825Q248 830 249 837T252 850Q257 870 269 881T311 893Q340 893 351 882T363 857Q363
852 362 845T359 832Q354 812 342 801T300 789ZM486 789Q457 789 446 800T434 825Q434 830 435 837T438 850Q443 870 455 881T497 893Q526 893 537 882T549 857Q549 852 548 845T545 832Q540 812 528 801T486 789Z" />
<glyph unicode="&#xc5;" glyph-name="Aring" d="M442 0L417 199H171L79 0H-9L321 698H431L528 0H442ZM366 614H357L202 272H409L366 614ZM387 748Q342 748 314 775T286 847Q286 874 296 897T325 937T366 964T415 974Q460 974 488 947T516 875Q516 848 506 825T477
785T436 758T387 748ZM391 795Q417 795 434 809T457 851Q459 860 460 869T461 883Q461 903 449 915T411 927Q385 927 368 913T345 871Q343 862 342 853T341 839Q341 819 353 807T391 795Z" />
<glyph unicode="&#xc6;" glyph-name="AE" d="M299 201H151L62 0H-23L297 698H627L616 629H448L408 388H564L553 319H397L356 69H523L512 0H266L299 201ZM344 638L181 270H311L372 638H344Z" />
<glyph unicode="&#xc7;" glyph-name="Ccedilla" d="M385 638Q301 638 252 575T184 403L168 307Q164 284 162 262T160 219Q160 147 192 104T296 60Q326 60 349 68T391 94T429 137T467 198L532 165Q513 126 492 95T444 42T384 6T310 -11L292 -61L294 -64Q305 -62
315 -61T331 -60Q359 -60 374 -75T390 -119Q390 -142 381 -159T356 -186T319 -202T275 -207Q236 -207 213 -195T179 -166L219 -126Q227 -137 240 -145T275 -153Q297 -153 311 -145T325 -119Q325 -108 314 -97T265 -80L236 -76L259 -11Q165 -3 122 61T78 240Q78
280 83 330T103 433T140 535T197 624T280 686T391 710Q439 710 473 696T529 660T564 609T582 552L508 528Q503 550 495 570T472 605T437 629T385 638Z" />
<glyph unicode="&#xc8;" glyph-name="Egrave" d="M47 0L164 698H592L580 626H234L194 390H529L517 318H182L141 72H489L477 0H47ZM309 918L382 949L434 775L383 755L309 918Z" />
<glyph unicode="&#xc9;" glyph-name="Eacute" d="M47 0L164 698H592L580 626H234L194 390H529L517 318H182L141 72H489L477 0H47ZM399 755L352 783L460 949L528 910L399 755Z" />
<glyph unicode="&#xca;" glyph-name="Ecircumflex" d="M47 0L164 698H592L580 626H234L194 390H529L517 318H182L141 72H489L477 0H47ZM468 935L555 788L509 761L413 878L276 761L237 794L370 935H468Z" />
<glyph unicode="&#xcb;" glyph-name="Edieresis" d="M47 0L164 698H592L580 626H234L194 390H529L517 318H182L141 72H489L477 0H47ZM305 789Q276 789 265 800T253 825Q253 830 254 837T257 850Q262 870 274 881T316 893Q345 893 356 882T368 857Q368 852 367
845T364 832Q359 812 347 801T305 789ZM491 789Q462 789 451 800T439 825Q439 830 440 837T443 850Q448 870 460 881T502 893Q531 893 542 882T554 857Q554 852 553 845T550 832Q545 812 533 801T491 789Z" />
<glyph unicode="&#xcc;" glyph-name="Igrave" d="M41 0L52 66H227L322 632H147L158 698H590L579 632H404L309 66H484L473 0H41ZM302 918L375 949L427 775L376 755L302 918Z" />
<glyph unicode="&#xcd;" glyph-name="Iacute" d="M41 0L52 66H227L322 632H147L158 698H590L579 632H404L309 66H484L473 0H41ZM392 755L345 783L453 949L521 910L392 755Z" />
<glyph unicode="&#xce;" glyph-name="Icircumflex" d="M41 0L52 66H227L322 632H147L158 698H590L579 632H404L309 66H484L473 0H41ZM461 935L548 788L502 761L406 878L269 761L230 794L363 935H461Z" />
<glyph unicode="&#xcf;" glyph-name="Idieresis" d="M41 0L52 66H227L322 632H147L158 698H590L579 632H404L309 66H484L473 0H41ZM298 789Q269 789 258 800T246 825Q246 830 247 837T250 850Q255 870 267 881T309 893Q338 893 349 882T361 857Q361 852 360 845T357
832Q352 812 340 801T298 789ZM484 789Q455 789 444 800T432 825Q432 830 433 837T436 850Q441 870 453 881T495 893Q524 893 535 882T547 857Q547 852 546 845T543 832Q538 812 526 801T484 789Z" />
<glyph unicode="&#xd0;" glyph-name="Eth" d="M111 337H31L41 399H122L172 698H343Q398 698 439 681T509 634T551 563T565 473Q565 351 543 262T480 115T380 28T248 0H55L111 337ZM255 72Q424 72 460 289L476 385Q479 403 481 426T483 471Q483 547 445 586T333
626H242L204 399H343L333 337H194L149 72H255Z" />
<glyph unicode="&#xd1;" glyph-name="Ntilde" d="M223 602H216L115 0H39L156 698H275L408 96H415L516 698H592L475 0H356L223 602ZM462 782Q437 782 419 791T386 810Q369 821 353 827T322 833Q306 833 291 826T259 804L231 845Q248 865 273 881T330 897Q355 897
373 888T406 869Q423 858 439 852T470 846Q486 846 501 853T533 875L561 834Q544 814 519 798T462 782Z" />
<glyph unicode="&#xd2;" glyph-name="Ograve" d="M260 -12Q157 -12 110 49T62 225Q62 269 67 322T86 429T123 533T180 623T262 686T372 710Q475 710 522 649T570 473Q570 429 565 376T546 269T509 165T452 75T370 12T260 -12ZM266 60Q347 60 396 122T463 292L482
406Q486 429 487 450T489 488Q489 560 461 599T366 638Q285 638 236 576T169 406L150 292Q146 269 145 248T143 210Q143 138 171 99T266 60ZM295 918L368 949L420 775L369 755L295 918Z" />
<glyph unicode="&#xd3;" glyph-name="Oacute" d="M260 -12Q157 -12 110 49T62 225Q62 269 67 322T86 429T123 533T180 623T262 686T372 710Q475 710 522 649T570 473Q570 429 565 376T546 269T509 165T452 75T370 12T260 -12ZM266 60Q347 60 396 122T463 292L482
406Q486 429 487 450T489 488Q489 560 461 599T366 638Q285 638 236 576T169 406L150 292Q146 269 145 248T143 210Q143 138 171 99T266 60ZM385 755L338 783L446 949L514 910L385 755Z" />
<glyph unicode="&#xd4;" glyph-name="Ocircumflex" d="M260 -12Q157 -12 110 49T62 225Q62 269 67 322T86 429T123 533T180 623T262 686T372 710Q475 710 522 649T570 473Q570 429 565 376T546 269T509 165T452 75T370 12T260 -12ZM266 60Q347 60 396 122T463
292L482 406Q486 429 487 450T489 488Q489 560 461 599T366 638Q285 638 236 576T169 406L150 292Q146 269 145 248T143 210Q143 138 171 99T266 60ZM454 935L541 788L495 761L399 878L262 761L223 794L356 935H454Z" />
<glyph unicode="&#xd5;" glyph-name="Otilde" d="M260 -12Q157 -12 110 49T62 225Q62 269 67 322T86 429T123 533T180 623T262 686T372 710Q475 710 522 649T570 473Q570 429 565 376T546 269T509 165T452 75T370 12T260 -12ZM266 60Q347 60 396 122T463 292L482
406Q486 429 487 450T489 488Q489 560 461 599T366 638Q285 638 236 576T169 406L150 292Q146 269 145 248T143 210Q143 138 171 99T266 60ZM456 782Q431 782 413 791T380 810Q363 821 347 827T316 833Q300 833 285 826T253 804L225 845Q242 865 267 881T324 897Q349
897 367 888T400 869Q417 858 433 852T464 846Q480 846 495 853T527 875L555 834Q538 814 513 798T456 782Z" />
<glyph unicode="&#xd6;" glyph-name="Odieresis" d="M260 -12Q157 -12 110 49T62 225Q62 269 67 322T86 429T123 533T180 623T262 686T372 710Q475 710 522 649T570 473Q570 429 565 376T546 269T509 165T452 75T370 12T260 -12ZM266 60Q347 60 396 122T463 292L482
406Q486 429 487 450T489 488Q489 560 461 599T366 638Q285 638 236 576T169 406L150 292Q146 269 145 248T143 210Q143 138 171 99T266 60ZM291 789Q262 789 251 800T239 825Q239 830 240 837T243 850Q248 870 260 881T302 893Q331 893 342 882T354 857Q354 852
353 845T350 832Q345 812 333 801T291 789ZM477 789Q448 789 437 800T425 825Q425 830 426 837T429 850Q434 870 446 881T488 893Q517 893 528 882T540 857Q540 852 539 845T536 832Q531 812 519 801T477 789Z" />
<glyph unicode="&#xd7;" glyph-name="multiply" d="M304 261L112 95L70 145L263 311L128 474L179 517L315 352L507 517L549 467L356 301L491 138L440 95L304 261Z" />
<glyph unicode="&#xd8;" glyph-name="Oslash" d="M260 -12Q214 -12 180 0T121 37L67 -36L10 0L83 96Q62 148 62 225Q62 269 67 322T86 429T123 533T180 623T262 686T372 710Q418 710 452 698T511 661L565 734L622 698L549 602Q570 549 570 473Q570 429 565 376T546
269T509 165T452 75T370 12T260 -12ZM150 292Q146 269 145 248T143 210Q143 200 143 192T145 175L463 596Q433 638 366 638Q285 638 236 576T169 406L150 292ZM266 60Q347 60 396 122T463 292L482 406Q486 429 487 450T489 488Q489 498 489 506T487 523L169 102Q199
60 266 60Z" />
<glyph unicode="&#xd9;" glyph-name="Ugrave" d="M236 698L169 298Q164 271 162 252T157 218T155 193T154 173Q154 147 159 126T176 91T211 68T266 60Q315 60 345 74T393 115T420 183T439 274L510 698H592L524 291Q511 213 495 156T452 62T382 6T269 -12Q162 -12
118 34T73 166Q73 198 78 240T91 323L154 698H236ZM297 918L370 949L422 775L371 755L297 918Z" />
<glyph unicode="&#xda;" glyph-name="Uacute" d="M236 698L169 298Q164 271 162 252T157 218T155 193T154 173Q154 147 159 126T176 91T211 68T266 60Q315 60 345 74T393 115T420 183T439 274L510 698H592L524 291Q511 213 495 156T452 62T382 6T269 -12Q162 -12
118 34T73 166Q73 198 78 240T91 323L154 698H236ZM387 755L340 783L448 949L516 910L387 755Z" />
<glyph unicode="&#xdb;" glyph-name="Ucircumflex" d="M236 698L169 298Q164 271 162 252T157 218T155 193T154 173Q154 147 159 126T176 91T211 68T266 60Q315 60 345 74T393 115T420 183T439 274L510 698H592L524 291Q511 213 495 156T452 62T382 6T269 -12Q162
-12 118 34T73 166Q73 198 78 240T91 323L154 698H236ZM456 935L543 788L497 761L401 878L264 761L225 794L358 935H456Z" />
<glyph unicode="&#xdc;" glyph-name="Udieresis" d="M236 698L169 298Q164 271 162 252T157 218T155 193T154 173Q154 147 159 126T176 91T211 68T266 60Q315 60 345 74T393 115T420 183T439 274L510 698H592L524 291Q511 213 495 156T452 62T382 6T269 -12Q162
-12 118 34T73 166Q73 198 78 240T91 323L154 698H236ZM293 789Q264 789 253 800T241 825Q241 830 242 837T245 850Q250 870 262 881T304 893Q333 893 344 882T356 857Q356 852 355 845T352 832Q347 812 335 801T293 789ZM479 789Q450 789 439 800T427 825Q427
830 428 837T431 850Q436 870 448 881T490 893Q519 893 530 882T542 857Q542 852 541 845T538 832Q533 812 521 801T479 789Z" />
<glyph unicode="&#xdd;" glyph-name="Yacute" d="M216 0L262 272L90 698H178L249 515L308 354H312L427 515L558 698H656L345 279L298 0H216ZM384 755L337 783L445 949L513 910L384 755Z" />
<glyph unicode="&#xde;" glyph-name="Thorn" d="M48 0L165 698H247L223 555H389Q477 555 518 510T560 391Q560 279 501 217T331 154H156L130 0H48ZM168 226H339Q396 226 427 253T467 325L473 361Q476 379 476 400Q476 442 451 462T379 483H211L168 226Z" />
<glyph unicode="&#xdf;" glyph-name="germandbls" d="M64 0L167 623Q173 658 185 680T215 716T254 735T298 740H435L424 673H252L226 516H568L555 438L349 209Q437 202 485 162T533 46Q533 -10 514 -55T457 -132T365 -182T240 -200H170L182 -133H247Q288 -133
322 -125T383 -101T426 -59T447 2Q450 26 451 37T452 57Q452 111 411 132T277 153H261L272 220L478 449H215L141 0H64Z" />
<glyph unicode="&#xe0;" glyph-name="agrave" d="M383 0L403 122H400Q370 61 328 25T217 -12Q139 -12 98 38T56 188Q56 240 68 299T109 410T185 494T300 528Q357 528 395 503T451 426H454L469 516H547L461 0H383ZM244 57Q276 57 307 70T365 114Q385 136 400 166T422
232L441 346Q450 400 416 429T323 459Q248 459 206 414T151 297L139 225Q137 211 136 201T135 180Q135 122 162 90T244 57ZM249 752L323 779L375 605L324 585L249 752Z" />
<glyph unicode="&#xe1;" glyph-name="aacute" d="M383 0L403 122H400Q370 61 328 25T217 -12Q139 -12 98 38T56 188Q56 240 68 299T109 410T185 494T300 528Q357 528 395 503T451 426H454L469 516H547L461 0H383ZM244 57Q276 57 307 70T365 114Q385 136 400 166T422
232L441 346Q450 400 416 429T323 459Q248 459 206 414T151 297L139 225Q137 211 136 201T135 180Q135 122 162 90T244 57ZM340 585L293 613L401 779L469 740L340 585Z" />
<glyph unicode="&#xe2;" glyph-name="acircumflex" d="M383 0L403 122H400Q370 61 328 25T217 -12Q139 -12 98 38T56 188Q56 240 68 299T109 410T185 494T300 528Q357 528 395 503T451 426H454L469 516H547L461 0H383ZM244 57Q276 57 307 70T365 114Q385 136 400
166T422 232L441 346Q450 400 416 429T323 459Q248 459 206 414T151 297L139 225Q137 211 136 201T135 180Q135 122 162 90T244 57ZM409 765L496 618L450 591L354 708L217 591L178 624L311 765H409Z" />
<glyph unicode="&#xe3;" glyph-name="atilde" d="M383 0L403 122H400Q370 61 328 25T217 -12Q139 -12 98 38T56 188Q56 240 68 299T109 410T185 494T300 528Q357 528 395 503T451 426H454L469 516H547L461 0H383ZM244 57Q276 57 307 70T365 114Q385 136 400 166T422
232L441 346Q450 400 416 429T323 459Q248 459 206 414T151 297L139 225Q137 211 136 201T135 180Q135 122 162 90T244 57ZM411 612Q386 612 368 621T335 640Q318 651 302 657T271 663Q255 663 240 656T208 634L180 675Q197 695 222 711T279 727Q304 727 322 718T355
699Q372 688 388 682T419 676Q435 676 450 683T482 705L510 664Q493 644 468 628T411 612Z" />
<glyph unicode="&#xe4;" glyph-name="adieresis" d="M383 0L403 122H400Q370 61 328 25T217 -12Q139 -12 98 38T56 188Q56 240 68 299T109 410T185 494T300 528Q357 528 395 503T451 426H454L469 516H547L461 0H383ZM244 57Q276 57 307 70T365 114Q385 136 400
166T422 232L441 346Q450 400 416 429T323 459Q248 459 206 414T151 297L139 225Q137 211 136 201T135 180Q135 122 162 90T244 57ZM246 619Q217 619 206 630T194 655Q194 660 195 666T198 680Q203 700 215 711T257 723Q286 723 297 712T309 687Q309 682 308 676T305
662Q300 642 288 631T246 619ZM432 619Q403 619 392 630T380 655Q380 660 381 666T384 680Q389 700 401 711T443 723Q472 723 483 712T495 687Q495 682 494 676T491 662Q486 642 474 631T432 619Z" />
<glyph unicode="&#xe5;" glyph-name="aring" d="M383 0L403 122H400Q370 61 328 25T217 -12Q139 -12 98 38T56 188Q56 240 68 299T109 410T185 494T300 528Q357 528 395 503T451 426H454L469 516H547L461 0H383ZM244 57Q276 57 307 70T365 114Q385 136 400 166T422
232L441 346Q450 400 416 429T323 459Q248 459 206 414T151 297L139 225Q137 211 136 201T135 180Q135 122 162 90T244 57ZM333 578Q288 578 260 605T232 677Q232 704 242 727T271 767T312 794T361 804Q406 804 434 777T462 705Q462 678 452 655T423 615T382 588T333
578ZM337 625Q363 625 380 639T403 681Q405 690 406 699T407 713Q407 733 395 745T357 757Q331 757 314 743T291 701Q289 692 288 683T287 669Q287 649 299 637T337 625Z" />
<glyph unicode="&#xe6;" glyph-name="ae" d="M121 -12Q69 -12 35 20T0 116Q0 195 56 237T206 284L268 287L278 343Q280 357 281 368T282 388Q282 469 208 469Q170 469 144 450T95 393L49 428Q72 470 113 499T214 528Q246 528 268 520T304 497T324 466T331 430H335Q358
477 393 502T476 528Q528 528 562 497T596 408Q596 376 584 347T541 293T459 254T331 236L327 212Q325 198 324 184T323 159Q323 105 343 78T401 50Q440 50 463 76T507 141L561 114Q550 91 535 69T500 28T453 -1T396 -12Q341 -12 305 22T267 122H261Q246 57 212
23T121 -12ZM138 47Q177 47 207 76T245 150L259 234L205 231Q146 228 113 210T71 143Q69 129 69 122T68 110Q68 80 87 64T138 47ZM471 469Q444 469 423 456T385 420T358 368T342 307L339 289Q394 291 430 301T489 326T520 362T530 406Q530 436 515 452T471 469Z"
/>
<glyph unicode="&#xe7;" glyph-name="ccedilla" d="M341 528Q382 528 412 518T465 492T500 452T521 404L454 378Q439 426 410 443T332 460Q266 460 225 417T169 293L159 233Q156 215 155 205T154 185Q154 119 188 88T280 56Q297 56 314 60T352 77T397 115T452
182L508 149Q463 75 413 35T292 -11L274 -61L276 -64Q287 -62 297 -61T313 -60Q341 -60 356 -75T372 -119Q372 -142 363 -159T338 -186T301 -202T257 -207Q218 -207 195 -195T161 -166L201 -126Q209 -137 222 -145T257 -153Q279 -153 293 -145T307 -119Q307 -108
296 -97T247 -80L218 -76L242 -10Q201 -6 170 12T117 58T86 123T75 206Q75 280 96 339T153 441T237 505T341 528Z" />
<glyph unicode="&#xe8;" glyph-name="egrave" d="M277 -12Q179 -12 126 42T73 209Q73 279 94 337T152 438T242 504T357 528Q395 528 427 519T482 493T519 449T532 389Q532 362 520 333T468 279T354 237T156 217Q155 209 155 203T155 194Q155 167 160 142T179 98T218
67T284 55Q312 55 334 61T377 81T417 116T459 169L514 135Q470 63 415 26T277 -12ZM350 463Q272 463 223 416T163 281L162 271Q256 274 313 285T401 313T442 348T452 386Q452 402 447 416T429 440T398 457T350 463ZM283 752L357 779L409 605L358 585L283 752Z"
/>
<glyph unicode="&#xe9;" glyph-name="eacute" d="M277 -12Q179 -12 126 42T73 209Q73 279 94 337T152 438T242 504T357 528Q395 528 427 519T482 493T519 449T532 389Q532 362 520 333T468 279T354 237T156 217Q155 209 155 203T155 194Q155 167 160 142T179 98T218
67T284 55Q312 55 334 61T377 81T417 116T459 169L514 135Q470 63 415 26T277 -12ZM350 463Q272 463 223 416T163 281L162 271Q256 274 313 285T401 313T442 348T452 386Q452 402 447 416T429 440T398 457T350 463ZM374 585L327 613L435 779L503 740L374 585Z"
/>
<glyph unicode="&#xea;" glyph-name="ecircumflex" d="M277 -12Q179 -12 126 42T73 209Q73 279 94 337T152 438T242 504T357 528Q395 528 427 519T482 493T519 449T532 389Q532 362 520 333T468 279T354 237T156 217Q155 209 155 203T155 194Q155 167 160 142T179
98T218 67T284 55Q312 55 334 61T377 81T417 116T459 169L514 135Q470 63 415 26T277 -12ZM350 463Q272 463 223 416T163 281L162 271Q256 274 313 285T401 313T442 348T452 386Q452 402 447 416T429 440T398 457T350 463ZM443 765L530 618L484 591L388 708L251
591L212 624L345 765H443Z" />
<glyph unicode="&#xeb;" glyph-name="edieresis" d="M277 -12Q179 -12 126 42T73 209Q73 279 94 337T152 438T242 504T357 528Q395 528 427 519T482 493T519 449T532 389Q532 362 520 333T468 279T354 237T156 217Q155 209 155 203T155 194Q155 167 160 142T179
98T218 67T284 55Q312 55 334 61T377 81T417 116T459 169L514 135Q470 63 415 26T277 -12ZM350 463Q272 463 223 416T163 281L162 271Q256 274 313 285T401 313T442 348T452 386Q452 402 447 416T429 440T398 457T350 463ZM280 619Q251 619 240 630T228 655Q228
660 229 666T232 680Q237 700 249 711T291 723Q320 723 331 712T343 687Q343 682 342 676T339 662Q334 642 322 631T280 619ZM466 619Q437 619 426 630T414 655Q414 660 415 666T418 680Q423 700 435 711T477 723Q506 723 517 712T529 687Q529 682 528 676T525
662Q520 642 508 631T466 619Z" />
<glyph unicode="&#xec;" glyph-name="igrave" d="M272 -12Q234 -12 215 7T195 57Q195 67 196 77T200 97L268 449H82L93 516H359L272 66L295 57L492 227L539 183L448 99Q413 66 388 45T342 11T306 -7T272 -12ZM245 752L319 779L371 605L320 585L245 752Z" />
<glyph unicode="&#xed;" glyph-name="iacute" d="M272 -12Q234 -12 215 7T195 57Q195 67 196 77T200 97L268 449H82L93 516H359L272 66L295 57L492 227L539 183L448 99Q413 66 388 45T342 11T306 -7T272 -12ZM336 585L289 613L397 779L465 740L336 585Z" />
<glyph unicode="&#xee;" glyph-name="icircumflex" d="M272 -12Q234 -12 215 7T195 57Q195 67 196 77T200 97L268 449H82L93 516H359L272 66L295 57L492 227L539 183L448 99Q413 66 388 45T342 11T306 -7T272 -12ZM405 765L492 618L446 591L350 708L213 591L174
624L307 765H405Z" />
<glyph unicode="&#xef;" glyph-name="idieresis" d="M272 -12Q234 -12 215 7T195 57Q195 67 196 77T200 97L268 449H82L93 516H359L272 66L295 57L492 227L539 183L448 99Q413 66 388 45T342 11T306 -7T272 -12ZM242 619Q213 619 202 630T190 655Q190 660 191
666T194 680Q199 700 211 711T253 723Q282 723 293 712T305 687Q305 682 304 676T301 662Q296 642 284 631T242 619ZM428 619Q399 619 388 630T376 655Q376 660 377 666T380 680Q385 700 397 711T439 723Q468 723 479 712T491 687Q491 682 490 676T487 662Q482
642 470 631T428 619Z" />
<glyph unicode="&#xf0;" glyph-name="eth" d="M433 645Q454 619 473 587T507 516T530 432T539 335Q539 256 521 192T466 83T377 13T256 -12Q212 -12 176 3T114 45T74 112T60 198Q60 262 79 318T132 415T214 480T317 504Q367 504 406 479T462 413L467 415Q458 462
435 511T373 607L269 542L238 588L334 649Q308 675 277 697T208 740H333Q347 730 363 717T396 687L500 753L531 707L433 645ZM269 56Q337 56 384 95T444 211L453 265Q456 283 457 295T458 316Q458 377 423 406T329 436Q262 436 215 398T154 281L145 227Q142 209
141 197T140 176Q140 115 175 86T269 56Z" />
<glyph unicode="&#xf1;" glyph-name="ntilde" d="M59 0L145 516H223L203 394H207Q236 456 276 492T379 528Q444 528 481 489T519 379Q519 364 518 347T513 312L461 0H383L434 305Q437 323 438 337T439 360Q439 406 418 432T353 459Q319 459 293 444T244 403Q240
398 232 388T214 362T197 327T185 285L137 0H59ZM428 612Q403 612 385 621T352 640Q335 651 319 657T288 663Q272 663 257 656T225 634L197 675Q214 695 239 711T296 727Q321 727 339 718T372 699Q389 688 405 682T436 676Q452 676 467 683T499 705L527 664Q510
644 485 628T428 612Z" />
<glyph unicode="&#xf2;" glyph-name="ograve" d="M265 -12Q215 -12 178 4T115 48T77 117T64 206Q64 280 85 339T142 441T228 505T334 528Q384 528 422 512T485 468T523 399T536 310Q536 236 515 177T458 75T372 11T265 -12ZM269 56Q342 56 385 100T442 222L452
282Q455 300 456 312T457 333Q457 399 423 429T331 460Q258 460 215 416T158 294L148 234Q145 216 144 204T143 183Q143 117 177 87T269 56ZM272 752L346 779L398 605L347 585L272 752Z" />
<glyph unicode="&#xf3;" glyph-name="oacute" d="M265 -12Q215 -12 178 4T115 48T77 117T64 206Q64 280 85 339T142 441T228 505T334 528Q384 528 422 512T485 468T523 399T536 310Q536 236 515 177T458 75T372 11T265 -12ZM269 56Q342 56 385 100T442 222L452
282Q455 300 456 312T457 333Q457 399 423 429T331 460Q258 460 215 416T158 294L148 234Q145 216 144 204T143 183Q143 117 177 87T269 56ZM363 585L316 613L424 779L492 740L363 585Z" />
<glyph unicode="&#xf4;" glyph-name="ocircumflex" d="M265 -12Q215 -12 178 4T115 48T77 117T64 206Q64 280 85 339T142 441T228 505T334 528Q384 528 422 512T485 468T523 399T536 310Q536 236 515 177T458 75T372 11T265 -12ZM269 56Q342 56 385 100T442 222L452
282Q455 300 456 312T457 333Q457 399 423 429T331 460Q258 460 215 416T158 294L148 234Q145 216 144 204T143 183Q143 117 177 87T269 56ZM432 765L519 618L473 591L377 708L240 591L201 624L334 765H432Z" />
<glyph unicode="&#xf5;" glyph-name="otilde" d="M265 -12Q215 -12 178 4T115 48T77 117T64 206Q64 280 85 339T142 441T228 505T334 528Q384 528 422 512T485 468T523 399T536 310Q536 236 515 177T458 75T372 11T265 -12ZM269 56Q342 56 385 100T442 222L452
282Q455 300 456 312T457 333Q457 399 423 429T331 460Q258 460 215 416T158 294L148 234Q145 216 144 204T143 183Q143 117 177 87T269 56ZM434 612Q409 612 391 621T358 640Q341 651 325 657T294 663Q278 663 263 656T231 634L203 675Q220 695 245 711T302 727Q327
727 345 718T378 699Q395 688 411 682T442 676Q458 676 473 683T505 705L533 664Q516 644 491 628T434 612Z" />
<glyph unicode="&#xf6;" glyph-name="odieresis" d="M265 -12Q215 -12 178 4T115 48T77 117T64 206Q64 280 85 339T142 441T228 505T334 528Q384 528 422 512T485 468T523 399T536 310Q536 236 515 177T458 75T372 11T265 -12ZM269 56Q342 56 385 100T442 222L452
282Q455 300 456 312T457 333Q457 399 423 429T331 460Q258 460 215 416T158 294L148 234Q145 216 144 204T143 183Q143 117 177 87T269 56ZM269 619Q240 619 229 630T217 655Q217 660 218 666T221 680Q226 700 238 711T280 723Q309 723 320 712T332 687Q332 682
331 676T328 662Q323 642 311 631T269 619ZM455 619Q426 619 415 630T403 655Q403 660 404 666T407 680Q412 700 424 711T466 723Q495 723 506 712T518 687Q518 682 517 676T514 662Q509 642 497 631T455 619Z" />
<glyph unicode="&#xf7;" glyph-name="divide" d="M67 272L78 338H549L538 272H67ZM269 52Q237 52 225 63T212 92Q212 100 213 107T215 119Q219 142 234 155T282 169Q314 169 326 158T339 129Q339 121 338 114T336 102Q332 79 317 66T269 52ZM334 441Q302 441 290
452T277 481Q277 489 278 496T280 508Q284 531 299 544T347 558Q379 558 391 547T404 518Q404 510 403 503T401 491Q397 468 382 455T334 441Z" />
<glyph unicode="&#xf8;" glyph-name="oslash" d="M8 0L91 85Q78 110 71 140T64 206Q64 280 85 339T142 441T228 505T335 528Q381 528 416 515T477 476L549 550L592 516L509 431Q522 406 529 376T536 310Q536 236 515 177T458 75T372 11T265 -12Q219 -12 184 1T123
40L51 -34L8 0ZM331 460Q258 460 215 416T158 294L148 234Q145 216 144 204T143 183Q143 171 144 161T148 140L426 426Q393 460 331 460ZM269 56Q342 56 385 100T442 222L452 282Q455 300 456 312T457 333Q457 345 456 355T452 376L174 90Q207 56 269 56Z" />
<glyph unicode="&#xf9;" glyph-name="ugrave" d="M399 122H395Q366 60 326 24T223 -12Q158 -12 121 27T83 137Q83 169 89 204L141 516H219L168 211Q165 193 164 179T163 156Q163 110 184 84T249 57Q283 57 309 72T358 113Q362 118 370 128T388 154T405 189T417
231L465 516H543L457 0H379L399 122ZM269 752L343 779L395 605L344 585L269 752Z" />
<glyph unicode="&#xfa;" glyph-name="uacute" d="M399 122H395Q366 60 326 24T223 -12Q158 -12 121 27T83 137Q83 169 89 204L141 516H219L168 211Q165 193 164 179T163 156Q163 110 184 84T249 57Q283 57 309 72T358 113Q362 118 370 128T388 154T405 189T417
231L465 516H543L457 0H379L399 122ZM360 585L313 613L421 779L489 740L360 585Z" />
<glyph unicode="&#xfb;" glyph-name="ucircumflex" d="M399 122H395Q366 60 326 24T223 -12Q158 -12 121 27T83 137Q83 169 89 204L141 516H219L168 211Q165 193 164 179T163 156Q163 110 184 84T249 57Q283 57 309 72T358 113Q362 118 370 128T388 154T405 189T417
231L465 516H543L457 0H379L399 122ZM429 765L516 618L470 591L374 708L237 591L198 624L331 765H429Z" />
<glyph unicode="&#xfc;" glyph-name="udieresis" d="M399 122H395Q366 60 326 24T223 -12Q158 -12 121 27T83 137Q83 169 89 204L141 516H219L168 211Q165 193 164 179T163 156Q163 110 184 84T249 57Q283 57 309 72T358 113Q362 118 370 128T388 154T405 189T417
231L465 516H543L457 0H379L399 122ZM266 619Q237 619 226 630T214 655Q214 660 215 666T218 680Q223 700 235 711T277 723Q306 723 317 712T329 687Q329 682 328 676T325 662Q320 642 308 631T266 619ZM452 619Q423 619 412 630T400 655Q400 660 401 666T404 680Q409
700 421 711T463 723Q492 723 503 712T515 687Q515 682 514 676T511 662Q506 642 494 631T452 619Z" />
<glyph unicode="&#xfd;" glyph-name="yacute" d="M208 -212Q84 -212 27 -141L81 -89Q101 -115 133 -129T213 -143Q285 -143 326 -107T382 15L402 137H399Q370 75 330 39T226 3Q161 3 123 42T85 152Q85 166 86 181T91 216L141 516H219L170 223Q167 206 166 193T165
171Q165 125 186 99T252 72Q286 72 312 87T361 128Q365 133 373 143T391 169T408 204T420 246L465 516H543L457 0Q437 -114 371 -163T208 -212ZM365 585L318 613L426 779L494 740L365 585Z" />
<glyph unicode="&#xfe;" glyph-name="thorn" d="M177 740H255L197 394H200Q230 455 272 491T383 528Q461 528 502 478T544 328Q544 276 532 217T491 106T415 22T300 -12Q243 -12 205 13T149 90H146L97 -200H19L177 740ZM277 57Q352 57 394 102T449 219L461 291Q463
305 464 315T465 336Q465 394 438 426T356 459Q324 459 293 446T235 402Q215 380 200 350T178 284L159 170Q150 116 184 87T277 57Z" />
<glyph unicode="&#xff;" glyph-name="ydieresis" d="M208 -212Q84 -212 27 -141L81 -89Q101 -115 133 -129T213 -143Q285 -143 326 -107T382 15L402 137H399Q370 75 330 39T226 3Q161 3 123 42T85 152Q85 166 86 181T91 216L141 516H219L170 223Q167 206 166 193T165
171Q165 125 186 99T252 72Q286 72 312 87T361 128Q365 133 373 143T391 169T408 204T420 246L465 516H543L457 0Q437 -114 371 -163T208 -212ZM271 619Q242 619 231 630T219 655Q219 660 220 666T223 680Q228 700 240 711T282 723Q311 723 322 712T334 687Q334
682 333 676T330 662Q325 642 313 631T271 619ZM457 619Q428 619 417 630T405 655Q405 660 406 666T409 680Q414 700 426 711T468 723Q497 723 508 712T520 687Q520 682 519 676T516 662Q511 642 499 631T457 619Z" />
<glyph unicode="&#x2013;" glyph-name="endash" d="M63 268L75 340H550L538 268H63Z" />
<glyph unicode="&#x2014;" glyph-name="emdash" d="M4 268L16 340H610L598 268H4Z" />
<glyph unicode="&#x2018;" glyph-name="quoteleft" d="M391 740H457L359 464H232L391 740Z" />
<glyph unicode="&#x2019;" glyph-name="quoteright" d="M358 740H485L326 464H260L358 740Z" />
<glyph unicode="&#x201a;" glyph-name="quotesinglbase" d="M237 135H364L205 -141H139L237 135Z" />
<glyph unicode="&#x201c;" glyph-name="quotedblleft" d="M534 740H600L502 464H375L534 740ZM517 740H583L485 464H358L517 740Z" />
<glyph unicode="&#x201d;" glyph-name="quotedblright" d="M501 740H628L469 464H403L501 740ZM484 740H611L452 464H386L484 740Z" />
<glyph unicode="&#x201e;" glyph-name="quotedblbase" d="M399 135H526L367 -141H301L399 135ZM382 135H509L350 -141H284L382 135Z" />
<glyph unicode="&#x2022;" glyph-name="bullet" d="M288 187Q231 187 208 210T184 270Q184 275 185 284T190 316Q198 361 229 391T327 422Q384 422 407 399T431 339Q431 334 430 325T425 293Q417 248 386 218T288 187Z" />
<glyph unicode="&#x2039;" glyph-name="guilsinglleft" d="M341 57L166 231L179 309L412 483L427 423L254 265L375 107L341 57Z" />
<glyph unicode="&#x203a;" glyph-name="guilsinglright" d="M178 117L351 275L230 433L264 483L439 309L426 231L193 57L178 117Z" />
</font>
</defs>
</svg>
