<svg xmlns="http://www.w3.org/2000/svg" xmlns:xlink="http://www.w3.org/1999/xlink" version="1.1" x="0px" y="0px" viewBox="0 0 100 100" style="enable-background:new 0 0 100 100;" xml:space="preserve"><g><path d="M84.2,37.8H80C78,36,75.4,35,72.6,35h-9.4c-4,0-7.5,2.2-9.5,5.4c-1.2-0.9-2.6-1.4-4.2-1.4s-3,0.5-4.2,1.4   c-1.9-3.2-5.5-5.4-9.5-5.4h-9.4c-2.8,0-5.4,1-7.4,2.8h-4.2c-1.3,0-2.3,1-2.3,2.3s1,2.3,2.3,2.3H16c-0.4,1.2-0.6,2.4-0.6,3.7V50   c0,8.3,6.8,15,15,15h1.5c8.3,0,15-6.8,15-15v-3.9c0-1.4,1.2-2.6,2.6-2.6s2.6,1.2,2.6,2.6V50c0,8.3,6.8,15,15,15h1.5   c8.3,0,15-6.8,15-15v-3.9c0-1.3-0.2-2.5-0.6-3.7h1.2c1.3,0,2.3-1,2.3-2.3S85.5,37.8,84.2,37.8z M31.9,60.5h-1.5   c-5.8,0-10.5-4.7-10.5-10.5v-3.9c0-1.7,0.6-3.2,1.7-4.4l0,0c1.2-1.3,2.9-2.2,4.9-2.2h9.4c3.6,0,6.6,2.9,6.6,6.6V50   C42.4,55.8,37.7,60.5,31.9,60.5z M68.6,60.5h-1.5c-5.8,0-10.5-4.7-10.5-10.5v-3.9c0-3.6,2.9-6.6,6.6-6.6h9.4c3.6,0,6.6,2.9,6.6,6.6   V50C79.2,55.8,74.4,60.5,68.6,60.5z"/></g></svg>