<svg width="100" height="100" xmlns="http://www.w3.org/2000/svg">

 <g>
  <title>background</title>
  <rect fill="none" id="canvas_background" height="602" width="802" y="-1" x="-1"/>
 </g>
 <g>
  <title>Layer 1</title>
  <g fill-opacity="0.8" id="svg_4">
   <path fill-opacity="0.8" fill="#6875f5" id="svg_3" d="m83.45,36.55l-4.2,0c-2,-1.8 -4.6,-2.8 -7.4,-2.8l-9.4,0c-4,0 -7.5,2.2 -9.5,5.4c-1.2,-0.9 -2.6,-1.4 -4.2,-1.4s-3,0.5 -4.2,1.4c-1.9,-3.2 -5.5,-5.4 -9.5,-5.4l-9.4,0c-2.8,0 -5.4,1 -7.4,2.8l-4.2,0c-1.3,0 -2.3,1 -2.3,2.3s1,2.3 2.3,2.3l1.2,0c-0.4,1.2 -0.6,2.4 -0.6,3.7l0,3.9c0,8.3 6.8,15 15,15l1.5,0c8.3,0 15,-6.8 15,-15l0,-3.9c0,-1.4 1.2,-2.6 2.6,-2.6s2.6,1.2 2.6,2.6l0,3.9c0,8.3 6.8,15 15,15l1.5,0c8.3,0 15,-6.8 15,-15l0,-3.9c0,-1.3 -0.2,-2.5 -0.6,-3.7l1.2,0c1.3,0 2.3,-1 2.3,-2.3s-1,-2.3 -2.3,-2.3zm-52.3,22.7l-1.5,0c-5.8,0 -10.5,-4.7 -10.5,-10.5l0,-3.9c0,-1.7 0.6,-3.2 1.7,-4.4l0,0c1.2,-1.3 2.9,-2.2 4.9,-2.2l9.4,0c3.6,0 6.6,2.9 6.6,6.6l0,3.9c-0.1,5.8 -4.8,10.5 -10.6,10.5zm36.7,0l-1.5,0c-5.8,0 -10.5,-4.7 -10.5,-10.5l0,-3.9c0,-3.6 2.9,-6.6 6.6,-6.6l9.4,0c3.6,0 6.6,2.9 6.6,6.6l0,3.9c0,5.8 -4.8,10.5 -10.6,10.5z"/>
  </g>
  <g fill-opacity="0.8" id="svg_6">
   <path fill="#f05252" id="svg_5" d="m85.95,39.05l-4.2,0c-2,-1.8 -4.6,-2.8 -7.4,-2.8l-9.4,0c-4,0 -7.5,2.2 -9.5,5.4c-1.2,-0.9 -2.6,-1.4 -4.2,-1.4s-3,0.5 -4.2,1.4c-1.9,-3.2 -5.5,-5.4 -9.5,-5.4l-9.4,0c-2.8,0 -5.4,1 -7.4,2.8l-4.2,0c-1.3,0 -2.3,1 -2.3,2.3s1,2.3 2.3,2.3l1.2,0c-0.4,1.2 -0.6,2.4 -0.6,3.7l0,3.9c0,8.3 6.8,15 15,15l1.5,0c8.3,0 15,-6.8 15,-15l0,-3.9c0,-1.4 1.2,-2.6 2.6,-2.6s2.6,1.2 2.6,2.6l0,3.9c0,8.3 6.8,15 15,15l1.5,0c8.3,0 15,-6.8 15,-15l0,-3.9c0,-1.3 -0.2,-2.5 -0.6,-3.7l1.2,0c1.3,0 2.3,-1 2.3,-2.3s-1,-2.3 -2.3,-2.3zm-52.3,22.7l-1.5,0c-5.8,0 -10.5,-4.7 -10.5,-10.5l0,-3.9c0,-1.7 0.6,-3.2 1.7,-4.4l0,0c1.2,-1.3 2.9,-2.2 4.9,-2.2l9.4,0c3.6,0 6.6,2.9 6.6,6.6l0,3.9c-0.1,5.8 -4.8,10.5 -10.6,10.5zm36.7,0l-1.5,0c-5.8,0 -10.5,-4.7 -10.5,-10.5l0,-3.9c0,-3.6 2.9,-6.6 6.6,-6.6l9.4,0c3.6,0 6.6,2.9 6.6,6.6l0,3.9c0,5.8 -4.8,10.5 -10.6,10.5z"/>
  </g>
  <g id="svg_1">
   <path id="svg_2" d="m84.7,37.8l-4.2,0c-2,-1.8 -4.6,-2.8 -7.4,-2.8l-9.4,0c-4,0 -7.5,2.2 -9.5,5.4c-1.2,-0.9 -2.6,-1.4 -4.2,-1.4s-3,0.5 -4.2,1.4c-1.9,-3.2 -5.5,-5.4 -9.5,-5.4l-9.4,0c-2.8,0 -5.4,1 -7.4,2.8l-4.2,0c-1.3,0 -2.3,1 -2.3,2.3s1,2.3 2.3,2.3l1.2,0c-0.4,1.2 -0.6,2.4 -0.6,3.7l0,3.9c0,8.3 6.8,15 15,15l1.5,0c8.3,0 15,-6.8 15,-15l0,-3.9c0,-1.4 1.2,-2.6 2.6,-2.6s2.6,1.2 2.6,2.6l0,3.9c0,8.3 6.8,15 15,15l1.5,0c8.3,0 15,-6.8 15,-15l0,-3.9c0,-1.3 -0.2,-2.5 -0.6,-3.7l1.2,0c1.3,0 2.3,-1 2.3,-2.3s-1,-2.3 -2.3,-2.3zm-52.3,22.7l-1.5,0c-5.8,0 -10.5,-4.7 -10.5,-10.5l0,-3.9c0,-1.7 0.6,-3.2 1.7,-4.4l0,0c1.2,-1.3 2.9,-2.2 4.9,-2.2l9.4,0c3.6,0 6.6,2.9 6.6,6.6l0,3.9c-0.1,5.8 -4.8,10.5 -10.6,10.5zm36.7,0l-1.5,0c-5.8,0 -10.5,-4.7 -10.5,-10.5l0,-3.9c0,-3.6 2.9,-6.6 6.6,-6.6l9.4,0c3.6,0 6.6,2.9 6.6,6.6l0,3.9c0,5.8 -4.8,10.5 -10.6,10.5z"/>
  </g>
 </g>
</svg>